<svg xmlns="http://www.w3.org/2000/svg" width="32" height="32" viewBox="251.3 252.0 520.4 520.4"><path fill="#00ffa3" d="M728.34 362.014c-4.755 2.984-10.84 5.792-15.958 8.31-24.612 12.109-49.023 25.026-73.931 36.522.837 21.264-.751 31.57-16.904 46.375.681 5.048.458 12.196.104 17.293-1.924 27.654-11.058 50.814-27.778 72.691a137.32 137.32 0 0 1-90.425 53.299c-15.084 1.998-60.878 1.685-73.898-3.293-2.816-.347-5.333-.555-8.043-1.454l-.083-.55 1.454-.488c20.957-13.386 35.478-25.051 41.017-49.68 22.974 2.537 50.799.991 72.933-5.501 5.086-1.491 11.057-3.897 16.062-5.838-2.195-1.132-3.575-.121-7.189-1.082-3.887-.369-11.004-.399-15.002-.276-59.975 1.835-117.851-2.46-168.307-38.846-33.806-24.379-60.91-61.961-67.686-104.187 11.091-.488 23.575.744 34.695 1.681C382.445 391.464 437.6 404.2 483 433.028c29.793 18.92 60.751 49.198 73.16 82.749l1.216-.464c-5.192-17.763-8.307-34.04-18.896-50.411 3.035-7.639 6.081-15.617 9.459-23.079-10.995-26.85-1.404-56.501 26.353-67.566a49.92 49.92 0 0 1 37.618.611c7.539 3.257 14.734 8.996 19.988 15.275 32.496-8.733 64.204-19.175 96.442-28.129"/><path fill="#00ffa3" d="M411.277 352.752c37.731 5.413 84.811 28.764 104.075 62.214 2.416 4.197 6.036 12.99 6.297 17.737-34.349-28.655-67.02-40.731-110.59-48.474q-.08-15.74.218-31.477"/><path fill="#00ffa3" d="M455.025 614.102c6.559-.502 18.192.145 25.139.367-15.584 17.249-34.162 34.105-50.5 50.846-2.011 2.061-5.579 3.71-8.266 4.785-6.399 1.786-16.305 1.432-23.088 1.433 3.326-4.325 8.532-9.425 12.435-13.314 13.527-13.481 26.609-27.341 39.753-41.191 1.288-1.358 2.853-2.154 4.527-2.926"/></svg>